<svg xmlns="http://www.w3.org/2000/svg" viewBox="0 0 128 128"><path fill="#C33" d="M116 4H12c-4.4 0-8 3.6-8 8v104c0 4.4 3.6 8 8 8h104c4.4 0 8-3.6 8-8V12c0-4.4-3.6-8-8-8"/><path fill="#F44336" d="M109.7 4H11.5C7.4 4 4 7.4 4 11.5v97.9c0 4.1 3.3 7.5 7.5 7.5h98.1c4.1 0 7.5-3.3 7.5-7.5V11.5c.1-4.1-3.1-7.4-7.2-7.5z"/><path fill="#FAFAFA" d="M98.6 21.5c-2.8 0-4.1 1.4-4.1 4v67.6c0 1.3-.6 2-1.9 2c-.6.1-2.3.1-5.1.1c-5-.1-6.9 1.6-5.8 5.1q1.35 3.75 6.6 3.6c4.9-.2 8.3-.7 10.1-1.6c1.6-.7 2.7-1.8 3.3-3.1s.9-3.4.9-6.1V25.5c.1-2.7-1.3-4-4-4M60.3 76H34.9c-1.8 0-3.2.6-4.3 1.7s-1.7 2.5-1.7 4.3v11.7c0 1.8.6 3.2 1.7 4.3s2.5 1.7 4.3 1.7h25.4c1.8 0 3.2-.6 4.3-1.7s1.7-2.5 1.7-4.3V82c0-1.8-.6-3.2-1.7-4.3S62 76 60.3 76m-2.1 14.9c0 1.5-.7 2.2-2.2 2.2H38.8c-1.5 0-2.2-.7-2.2-2.2v-6.3c0-1.5.7-2.2 2.2-2.2H56c1.5 0 2.2.7 2.2 2.2zM84 76.3V33.5c0-2.6-1.3-4-4-4s-4 1.3-4 4v42.7c0 2.6 1.3 4 4 4s4-1.3 4-3.9M67 65.1H51.1v-5.3h11.1c2 0 2.9-1 2.9-3s-1-2.9-2.9-2.9H51.1v-5h12.1c2 0 3.1-1.1 3.1-3.2c0-2-1-3.1-3.1-3.1H51.1V41c0-2.6-1.3-4-4-4c-2.6 0-4 1.3-4 4v1.6H32.7c-2 0-3.1 1-3.1 3.1s1 3.2 3.1 3.2h10.5v5H31.9c-2 0-2.9 1-2.9 2.9c0 2 1 3 2.9 3h11.2v5.3H26.8c-2.1 0-3.2 1.1-3.2 3.2c0 2.2 1.1 3.3 3.2 3.3H67c2.1 0 3.2-1.1 3.2-3.3s-1.1-3.2-3.2-3.2m-1.9-37h-14v-3.9c0-2.7-1.3-4-4-4c-2.8 0-4.1 1.3-4.1 4v3.9H29.5c-1.8 0-3.2.6-4.3 1.7s-1.7 2.5-1.7 4.3v5.3c0 2.5 1.3 3.7 3.8 3.7s3.7-1.2 3.7-3.7V37c0-1.5.7-2.2 2.2-2.2H61c1.5 0 2.2.7 2.2 2.2v2.2c0 2.6 1.3 3.9 4 3.9q3.9 0 3.9-3.9V34c0-1.8-.6-3.2-1.7-4.3c-1-1.1-2.5-1.6-4.3-1.6"/><path fill="#FF8A80" d="M39.7 12.9c0-2.3-1.6-3-10.8-2.7c-7.7.3-11.5 1.2-13.8 4s-2.9 8.5-3 15.3c0 4.8 0 9.3 2.5 9.3c3.4 0 3.4-7.9 6.2-12.3c5.4-8.7 18.9-10.6 18.9-13.6"/></svg>