<svg xmlns="http://www.w3.org/2000/svg" viewBox="0 0 128 128"><path fill="#FFCA28" d="M90.6 71.1c.1.4.6.5.8.2c3.9-4.8 14.6-18.1 26.7-14.7c3.9 1.1 5.7 5.5 4.1 8.8c-2.4 5.2-15.8 14.1-22.5 25.6c-1.1 1.8-10.3 23.1-25.8 29.3c-15.4 6.2-42.2 5.4-50.1-24.6c-4.1-15.5-1.8-19.1-6-39.7c-.8-4-4.1-21.1-4.6-26.2c-.7-6.8 9.4-9.1 11.8-3.3c1.1 2.8 9.4 26.6 9.7 27.7c2.3-10.5 6.8-13 12.2-12.8c4 .1 6.5 2.1 7.7 4.2c2.1-3.5 5.8-4.8 9.8-4.1c3.4.6 6.7 2.9 8.5 7.6C73 47.6 82 13 83.1 9.2c2-6.5 13.2-6 12.6 2.7c-1.3 17.4-7.9 44-5.1 59.2"/><defs><path id="SVGk1pNfbmg" d="M90.6 71.1c.1.4.6.5.8.2c3.9-4.8 14.6-18.1 26.7-14.7c3.9 1.1 5.7 5.5 4.1 8.8c-2.4 5.2-15.8 14.1-22.5 25.6c-1.1 1.8-10.3 23.1-25.8 29.3c-15.4 6.2-42.2 5.4-50.1-24.6c-4.1-15.5-1.8-19.1-6-39.7c-.8-4-4.1-21.1-4.6-26.2c-.7-6.8 9.4-9.1 11.8-3.3c1.1 2.8 9.4 26.6 9.7 27.7c2.3-10.5 6.8-13 12.2-12.8c4 .1 6.5 2.1 7.7 4.2c2.1-3.5 5.8-4.8 9.8-4.1c3.4.6 6.7 2.9 8.5 7.6C73 47.6 82 13 83.1 9.2c2-6.5 13.2-6 12.6 2.7c-1.3 17.4-7.9 44-5.1 59.2"/></defs><clipPath id="SVGsx0Rodba"><use href="#SVGk1pNfbmg"/></clipPath><g fill="#FAA700" clip-path="url(#SVGsx0Rodba)"><path d="M88.5 70c-18 2-32.1 12.4-31.6 33c0 1.7 2.6 1.7 2.7-.1c.6-9.7 5.9-24.6 28.4-29.2c1.1 1.8 4.1 1.4 5.1.1c6.8-8.4 12.6-15.1 22.1-15.1c3.6 0 6.3 3.3 3.9 7.3c0 0-1.5 2.2-2.1 3.2c-.4.7 4.4-1.4 4.9-1c1.7-1.7 5.1-4.7 5.1-4.8c.1-.2-8.5-11.5-8.5-11.5l-16.2 3.6zM71.1 53.9c1.7.2 3.5-.1 3.9-2s9.4-37.7 10.1-40.3c1.2-4.9 6.5-5.6 8.4-2.1c1 1.9 3.5-.8 3-1.8c-.6-1-1.5-4-6.8-4.6c-9.6-1-10.5 9.8-11.6 15.7s-7 35.1-7 35.1m-13.9 68.3C37 119.6 29 106.4 26.3 94.3c-3.1-13.8-2.3-24-4.5-32.8c-.8-3.1-5.6-28.9-5.6-32.8c0-3.2 5.4-5.3 7.2-1.1c1.1 2.6 3.9.4 3.1-1.2s-2.8-5.1-7.5-4.8s-7.4 4.4-7.5 6.2s12.2 85 12.2 85L43 124.5l14.2.3z"/><path d="M70.1 48.2c-1.4-3.2-9.3-8.2-14.5 0c-.8 1.2-2 .6-2.2 0c-1-3.5-9.3-8.1-14.4.7c-1.5 2.6-1.6 8.3-1.5 9.6s-2.8 2.4-3.1.6S33 47.5 33 47.5l7.5-7.5l26.8-1.1l4.6 6.4zM71.7 63c.4 7.8-14.3 9.3-14.2-.5c0-1.5-2.2-1.3-2.1 0c.3 8.9-12.7 8-14.1 4.8c-1.8-4.1-2.6-2.9-3-2.8c-.6.2-.5 15.6 9.1 15.6c5.9 0 7.9-5.8 7.9-5.8s.9 5.7 7 5.2c9.6-.7 10.8-11.1 10.8-15.6c.1-2.8-1.4-.9-1.4-.9"/></g><defs><use href="#SVGk1pNfbmg" id="SVGa74Hqc3M"/></defs><clipPath id="SVGVD9c3bIw"><use href="#SVGa74Hqc3M"/></clipPath><g fill="#B55E19" clip-path="url(#SVGVD9c3bIw)"><path d="M123.4 59.1c-.3 1.6-1.1 4.1-3.6 6.7c-9.4 9.7-17.1 13.9-23.7 26.6c-12.6 24.3-31.8 36.6-61.7 22.3c-3-1.4-3.7 1.2-2 1.9c.6.4 22.6 9.5 22.6 9.5s28.2-3.9 28.4-4.1c.1-.2 42.9-56.7 42.9-56.7zM90.6 4c1.1 1 3.1 3.7 2.7 8.7S88.4 45.1 88 48.3c-.3 3.2-2.3 17.7-.6 23.8c.5 1.7 2.6 1.3 3.1-.1c.2-.6.9-2.3.9-2.3L102.3 5L94.7.5zM34.7 54.2s-.2 3.5 1.1 5c-.1-1.4 0-2.1.1-2.4c.3-1.1 1.7-1 1.8.3c.2 5.1 2 9.5 2.1 10.7c.3 2.9.3 5.3 1.2 7.3c2.2 5.1 10.5 5.7 12.9-1.3c1.6-4.7 2.2-24.9-3.3-30.3c-.9-.9.1-1.8.3-2c1.4.7 3.8.4 3.7 4.1c2.7 4.9 4 21.9 1.9 29.5c2.4 4.7 9.3 5 12.9-1.2c1.8-3.2 2.1-8.6 2.2-13.9c0-3-.2-11.6-4.3-16.3c-.4-.5.1-1.6.3-1.7c1.6.3 5.1.7 5.3 7.1c2 7.1 1.6 17.8-.4 24.3c-2.5 8.1-12.9 10.9-17.4 4.7c-2.6 3.2-4.6 3.8-7.7 3.8c-9.7 0-9.7-11.2-10.2-14.9c-5-6.2-4.6-10.4-5.2-11.8c-.9-2.5-8.5-26-9-27.7s-2.6-5-6.4-4.2c-1.4.3-2-2.1-.6-2.4c1.5-.4 9.2-2.2 10.9 3.4s7.8 29.9 7.8 29.9"/></g></svg>