<svg xmlns="http://www.w3.org/2000/svg" viewBox="0 0 128 128"><path fill="#464C4F" d="M26.27 17.42s-2.9-2.82-5.6-4.52c-1.44-.91-3.33-2.5-1.78-3.93S35.26.06 50.02 11.35S64.95 41.9 64.95 41.9L39 27.66z"/><path fill="#DFDFE0" d="M56.57 35.04s2.58-2.64 3.16-3.1s2.9-2.57 2.9-2.57s.52 1.32.73 2.12c.2.75.44 1.95.44 1.95s-1.66 2.06-2.18 2.75s-2.12 2.76-2.12 2.76zm-5.4-7.35s2.05-2.03 3.67-3.22c2.76-2.01 4.56-2.32 4.56-2.32s.47.81.9 1.61c.28.52.8 1.75.8 1.75s-2.52 1.89-4.3 3.09c-1.95 1.32-3.27 2.58-3.27 2.58l-2.35-3.5zm-5.23-7.01s2.41-2.3 3.85-3.39s3.7-2.9 3.7-2.9s.52.4.96.87s.81 1.02.81 1.02s-2.2 3.02-3.64 4.51s-3.27 3.04-3.27 3.04zm-3.33-7.98s1.19-.94 1.72-1.67c.89-1.2 1.34-2.5 1.34-2.5s1.09.48 1.91.99c.5.31 1.8 1.35 1.8 1.35s-1 2.62-2.35 4.35c-1.48 1.91-2.98 3.4-2.98 3.4l-1.44-5.93zm-11.48 3.73s-2.01-4.59-3.16-6.55c-1-1.7-2.59-3.74-2.59-3.74s1.68-.49 3.25-.72c1.38-.2 3.02-.2 3.02-.2l1.95 5.63l-2.47 5.57z"/><path fill="#9A9A9A" d="m103.54 38.61l4.43 1.83s4.13 2.07 6.5 7.65s3.92 12.83 4.08 13.97s1.03 4.51 1.03 4.51l-2.35 3.91l-1.76-3.52s-1.3-6.04-1.99-8.94s-4.51-7.49-4.51-7.49zm-55.65 39.6s.58 11.87.66 14.18s.16 9.77.16 11.57s-.41 3.75-.48 4.27s-.76 2.01-.76 2.01l1.02 3.28l6.82-1.18l2.7-2.55s.71-7.95.71-11.5s.2-8.73.13-10.1s-1.57-7.22-1.57-7.22zm24.17 2.61s4.17.48 8.88-.07c3.94-.46 7.31-2.52 8.21-2.54c1.14-.02 2.16 9.03 2.01 12.54s-2.85 12.23-2.85 12.23l6.44 2.55l4.49-4.1s1.63-8.66 1.63-12.32s.15-6.42.15-6.42l-3.21-7.39l1.49-15.6l-29.85 7.98z"/><path fill="#DFDFE0" d="m15.43 34.28l.76-4.99s3.43-6.41 6.77-9.23s4.58-3.57 4.58-3.57l3.85-.13l1.99-4.47l3.9-4.83l2.3-.31l2.57 4.74l1.46 7.66l14.2 18.74l6.27 4.66l5.73 2.06l10.48-4.39l10.03-2.78l12.18 1.16l7.08 4.93l2.6 8.24l.36 7.43l-.48 6.31s.27 7.78.64 11.89s1.25 10.05 1.25 12.18s-.37 4.92-.44 7.7c-.07 2.79.05 6.29.05 6.29l-4.16 4.06l-6.97-.44l-.6-2.28s.95-4.75 1.14-9.42s-.91-8.04-.91-8.04l-2.86-7.34l-1.98-9.46l1.69-10.2l-1.22.51s-5.54 4.9-9.24 7.15s-10.23 2.96-11.59 3.12s-4.66-.06-5.47.38s-.37 2.93-.37 2.93l1.25 10.86l-1.69 14.01l-1.17 15.11l-5.87 4.18l-5.3-3.35s1.21-2.86 1.57-4.63s-.02-11.09-.09-12.81s-.66-7.01-.95-8.62s-2.05-4.18-2.05-4.18l-7.78-6.75l-3.67-5.21l-2.71-13.28l-9.54-16.8l-6.38 2.57l-7.34-.59l-3.88-10.77z"/><path fill="#9A9A9A" d="M19.8 42.17s5.85-.54 8.76-1.67s6.23-4.19 6.85-4.58s3.64 2.63 3.64 2.63s2.48 3.56 4.17 9.79s1 14.09 1 14.09l-4.79-7.52L35 45.96l-4.03-2.66l-5.66 2.61l-4.87-.49z"/><path fill="#2F2F2F" d="M92.72 65.1s.13-3.57 1.85-6.16c1.72-2.58 5.06-3.23 5.06-3.23s2.51-2.76 4.92-4.27s7.15-2.79 7.15-2.79l.59 4.64s-5.21 4.74-7.1 6.52s-5.91 6.15-5.91 6.15s-1.05 6.64.25 10.94s3.33 8.35 3.73 9.98s.24 4.35-.37 4.14c-.32-.11-.3-2.38-1.34-4.54c-.68-1.41-4.31-6.83-4.95-13.14c-.73-7.25 1.72-11.69 1.31-12.22c-.21-.27-.43.07-.43.07l-2.66 4.03l-2.11-.11z"/><path fill="#2F2F2F" d="M84.35 69.8s-.93-10.85 3.82-18.82s14.91-10.93 14.91-10.93l4.79 1.94l1.18 2.58s-10.23 2.69-14.86 8.35c-4.4 5.37-5.74 15.2-5.74 15.2L86 70.58z"/><path fill="#2F2F2F" d="M75.22 71.3s-1.31-4.76-.99-11.39c.32-6.62 1.35-9.75 1.45-11.95c.11-2.21.48-6.57.48-6.57l5.11-1.29s-.98 1.98-1.35 3.88c-.27 1.38-.16 2.69.27 2.69s1.67-2.75 3.18-4.85s3.12-3.28 3.12-3.28l7.11-.43s-6.84 5.27-10.93 12.81c-3.12 5.76-4.15 12.01-4.15 14.7s.26 5.36.26 5.36l-1.61 1.8l-1.97-1.48zM44.35 58.88s4-.9 6.12-2.24c3.54-2.23 5.4-5.23 7.31-8.51c1.44-2.47 3.28-6.43 3.28-6.43l4.34 2.72s-1.1 3.21-3.85 8.12c-1.32 2.35-3.72 5.7-8.62 10.1c-2.54 2.29-8.21 5.42-8.21 5.42l-.37-3.65s5.19-2.2 4.8-3.05c-.33-.71-4.94 1.06-4.94 1.06l-.35-2.93l.48-.62zm-.55-7.79s2.4-1.13 4.2-2.79s3.78-3.71 4.41-4.31s2.22-1.94 3.04-.99s-.57 2.61-1.62 4.03s-2.71 4.01-5.79 6.18c-2.65 1.87-3.79 2.35-3.79 2.35l-1.97-1.86zm-2.76-8.63s3.96-3.87 6.08-5.53s5.58-4.73 5.58-4.73l3.18 4.06s-4.25 3.87-6.22 5.44c-2.3 1.83-6.92 5.05-6.92 5.05l-1.52-1.16zm-5.63-6.54s-.23-1.84-.76-3.08s-1.31-2.44-1.41-5.05s.46-4.8 1.69-4.66s1 2.45 1.34 3.99c.71 3.21 1.84 4.94 2.26 6.39s.51 5.04.51 5.04l-2.03-.91zm-16.38 4.77s2.9-2.98 5.45-2.72s2.69 2.98 2.69 2.98l-1.48 1.11s-1.17.52-1.27.15s-.26-.68-.47-.92c-.39-.46-1.18.23-2.09.97s-1.71 1.42-1.71 1.42l-1.12-2.98z"/><path fill="#2F2F2F" d="M19.89 34.16s3.49-3.16 6.66-2.55c5.19.99 5.93 6.59 5.93 6.59l-.83 2.23l-2.04-.42s-.05-4.52-3.97-4.89c-3.2-.3-7.74 4.71-7.74 4.71l1.99-5.66zm-2.2-4.15s2.68-3.2 3.07-4.58s.11-3.19.11-3.19s.85-1.03 1.71-1.83c1.18-1.1 2.2-1.86 2.2-1.86s.88 3.54.16 6.6c-.59 2.54-2.07 3.78-3.19 5.03c-.96 1.08-2.12 1.9-2.12 1.9L17.68 30z"/><path fill="#0B0B0B" d="m42.61 59.33l1.74-.46s.08 1.8.09 2.08c.04.67.09 1.56.09 1.56zm-3.28-6.06s1.16-.46 2.38-1.04s2.1-1.14 2.1-1.14s.17 1 .33 2.6c.05.55.13 1.85.13 1.85s-1.92 1.14-2.87 1.39s-2.08-3.67-2.08-3.67zm-5.6-10.26s1.22-1.5 1.56-3.18s.12-3.91.12-3.91s.97-.75 1.86-.03c1.1.89 1.77 2.66 1.77 2.66s-.03 2.63-.55 4.43s-1.99 4.77-1.99 4.77zm-9.14 1.42s-.03-1.18-.18-1.87s-.25-.98-.25-.98s1.16-.21 1.51-.28s1.49-.36 1.49-.36s.19 1.49.19 2.2s-.03 1.1-.03 1.1l-2.74.19zm4.9-1.09s.13-1.55.13-2v-1.33s.99-.56 1.35-.77c.61-.35 1.51-1.04 1.51-1.04s.16 1.04.15 2.49c0 .81-.18 2.26-.18 2.26z"/><path fill="#2F2F2F" d="M20.35 44.27s3.14.19 5.62-.18s4.94-1.99 7.07-1.79c1.88.18 3.49 5.54 6.37 10.37s4.83 8.63 5.06 9.43s.56 6.38 2.98 10.98s4.61 6.51 6.22 8.35s3.75 4.29 3.57 4.53c-.41.55-8.71-5.73-11.32-9.3c-4.83-6.62-4.03-13.96-4.03-13.96s-3.55-6.48-5.16-9.61s-3.7-8.02-4.68-8.11s-2.97 1.23-6 1.61c-3.58.45-5.82-.45-5.82-.45l.1-1.88z"/><path fill="#464C4F" d="M16.19 29.3c-.41.16-6.22 5.04-8.67 9.5c-1.67 3.03-1.53 6.02-.59 8.18c1.22 2.79 3.52 2.69 3.52 2.69l2.99.83s2.84.1 4.9-1.52s2.55-2.64 2.55-2.64s.44-2.06-.34-3.82s-1.47-2.45-1.47-2.45s2.64-4.85.54-8.76c-.98-1.83-2.79-2.25-3.43-2.01"/><path fill="#0B0B0B" d="M28.87 25.06c-1.61.12-2.16 1.79-2.16 2.96c0 1.54 1.23 2.9 2.59 2.9s2.47-1.36 2.28-3.15c-.17-1.6-1.05-2.84-2.71-2.71"/><path fill="#454C4F" d="M38.19 10.05c-.67-.08-1.98 3.09-2.47 5s-.37 2.72.12 3.27s2.69.65 3.27-.06c1.12-1.35.12-8.09-.93-8.21z"/><path fill="#0B0B0B" d="M9.78 40.71c-.18.98 1.03 1.71 1.03 1.71s-.29 2.43 1.03 2.35c1.57-.1 2.3-3.13 1.52-4.46s-3.33-.98-3.57.39zm6.81 4.65s.73-2.11 2.01-2.11c1.08 0 1.37 1.81.29 3.04s-1.91 2.25-3.04 2.99s-2.44 1.45-3.72 1.3s-1.96-.86-1.57-1.01s1.89-.83 3.18-1.62c1.62-.98 2.84-2.59 2.85-2.59"/><path fill="#2F2F2F" d="M26.26 17.41s1.44-1.22 2.56-1.72s1.89-.56 1.89-.56s1.12-3.56 3.25-6.14S38.17 5 39.58 5.4s3.21 4.57 3.83 7.21s1.05 5.59 1.05 5.59s3.32 3.87 8.03 10.74c3.48 5.08 6.6 8.44 8.77 10.23s6.57 3.96 8.21 3.88s8.29-3.81 14.7-5.52s17.93-2.72 23.81 2.91c5.3 5.08 5.81 9.9 5.45 16.05c-.22 3.81-1.13 9.05-1.34 9.03c-.3-.02.9-10.75-2.46-18.06c-1.94-4.22-4.52-7.07-11.72-8.36c-12.09-2.16-25.15 6.34-28.59 6.72c-2.58.28-9.31-3.68-11.1-5.62s-5.32-6.78-6.79-8.83c-3.2-4.46-8.53-11.6-8.82-12.27s-.07-2.99-1.05-6.64c-.76-2.88-1.87-4.93-2.84-5s-3.92 3.49-4.85 5.67c-1.49 3.51-.75 7.09-1.27 7.61s-1.72 2.31-3.28 1.94s-3.04-5.26-3.04-5.26z"/><path fill="#0B0B0B" d="M75.21 71.31s.48 2.37 1.35 4.32c1 2.25 2.55 4.31 3.43 3.59s-.48-2.95-.72-4.62s-.49-3.61-.49-3.61s-.98.17-1.96.23c-.7.05-1.62.09-1.62.09zm9.14-1.5s.12 2.68.29 4.19c.13 1.23.4 4.31 1.06 4.34c1.29.06 1.46-2.2 1.93-4.73s.84-5.49.84-5.49s-.7.44-2.1 1.02c-1.01.41-2.01.68-2.02.67m8.38-4.71s-.24 2.1-.24 3.32s-.29 3.35.74 3.35s1.68-2.98 2.18-4.69c1.1-3.83 2.09-5.9 2.09-5.9s-1.4 1.12-2.53 2.02c-.94.75-2.23 1.89-2.23 1.89zm-3.25 13.36s2-.91 3.3-1.43s3.35-1.13 4.05.13s-1.13 3.22-2.57 3.79s-3.88.68-3.88.68s-.16-.88-.35-1.69s-.55-1.48-.55-1.48m1.32 5.96s.78.21 2.96.13c1.34-.05 2.68-.54 3.81-.32s2.11 2.22.11 3.65c-2.85 2.04-6.56.41-6.56.41s-.06-1.19-.13-2.11c-.04-.48-.19-1.76-.19-1.76m.27 7.33s1.72.21 2.9.21s2.74-.32 3.06.48s-.7 2.95-3.33 2.95s-3.28-.21-3.28-.21s.33-1.54.4-1.91c.13-.72.25-1.53.25-1.53z"/><path fill="#464C4F" d="M58.5 114.74c-.31.15-1.16 1.75-1.96 3.14c-.68 1.18-1.42 2.57-1.27 3.72s1.84 2.77 6.81 2.24s6.95-3.21 7.79-5.73s1.02-11.42 1.37-16.32s1.98-13.19 1.87-16.57s-1.21-11.02-1.95-11.28s-.11 9.01-.02 11.23c.17 4.1-.77 6.41-1.45 14.02c-.6 6.65-.81 12.78-1.45 14.54c-.55 1.52-3.42 2.86-6.24 2.74c-3.04-.13-3.48-1.72-3.48-1.72z"/><path fill="#0B0B0B" d="M41.11 42.39s-2.54 2.39-1.17 4.33c.9 1.27 2.8.03 2.8.03s-.36-1.18-.89-2.62c-.29-.77-.74-1.74-.74-1.74"/><path fill="#2F2F2F" d="M43.09 18.88s-4.24 2.3-4.77 3.64c-.34.85-.42 5.83.85 5.9s1.55-1.52 2.54-3.18s3.39-3.39 3.39-3.39zm4.41 6.11s-2.45 1.93-4.17 3.96c-1.59 1.87-2.51 3.57-2.61 5.26c-.07 1.06.39 2.08 1.06 2.19c1.06.18 3.32-2.93 5.51-4.8s3.53-3 3.53-3zm20.57 19.74s-.15 5.25-3.93 11.65c-3.16 5.36-5.67 6.41-8.02 8.19c-1.28.97-6.25 3.8-6.07 4.28c.34.88 2.84.68 8.05-1.74s10.16-6.96 11.87-11.75c2.55-7.13 2.41-11.62 2.41-11.62l-4.33.99zm-21.9 28.03s2.48.7 4.64.13s7.43-2.41 10.35-3.94c2.92-1.52 6.41-3.94 8.13-3.75s2.52 2.89 2.87 4.12s.79 2.77-.2 3.08s-2.37-2.65-3.67-2.65s-5.21 2.57-7.54 3.75c-2.33 1.19-7.51 3.61-8.57 4.22s-.44 1.61-.44 1.61l-4.06-1.82l-1.5-4.75zm10.47 7.76c.1 1.03 2.68 2.63 7.12 2.22s5.94-1.96 5.47-4.13c-.46-2.17-1.51-1.84-3.87-.98c-2.27.83-3.92 1.34-5.99 1.7s-2.83.26-2.74 1.19zm41.45-11.16s3.56.3 6.03-.72c3.04-1.25 5.85-4.12 6.8-3.34s-.24 5.49-4.83 7.4c-4.54 1.89-7.76.84-7.76.84zm1.08 8.65s3.28-.06 6.5-.6s5.13-1.37 5.97-1.13s1.43 1.85.3 3.16s-3.59 2.34-5.91 2.57c-3.04.3-5.97-.42-5.97-.42l-.9-3.58zm3.16 7.7s2.75-.18 4.95-.54s5.61-.78 5.85.06s-.78 3.76-4.95 4.65s-5.19-.42-5.19-.42l-.66-3.76zm.65 8.15s1.87.19 3.64.56s5.49 1.07 5.55 2.09c.07 1.14-3.25 2.58-6.89 2.36c-1.48-.09-2.49-.49-2.49-.49s.1-.85.15-2.23c.05-1.4.03-2.3.03-2.3zm-45.04-7.23c-.06.12.29 1.21.79 2.26c.7 1.46 1.89 3 4.32 3.08c5.24.17 6.46-3.46 6.11-4.44s-4.4-.07-5.94-.14s-5.04-1.25-5.28-.76m1.8 11.57s1.8.23 4.65-.28c1.72-.31 3.47-1.49 4.15-.81s-.62 4.14-3.16 4.84c-2.97.81-5.47-.07-5.5-.4c-.04-.43-.14-3.35-.14-3.35m.24 9.06s1.61.21 3.25.19c1.44-.02 4.06-.44 4.62-.11s.72 2.64-.24 3.14s-3.86.67-5.06.67s-2.79-.07-2.73-.42c.05-.25.11-.82.13-1.61s.04-1.58.03-1.86"/><path fill="#0B0B0B" d="M48.22 85.23s1.8.66 3.71.63c1.16-.02 3.14-.29 3.59.33s-.27 2.76-2.93 3.51c-2.19.62-4.18-.46-4.18-.46s-.07-1.03-.11-1.88zm.34 7.86s1.74.36 3.74.29c1.16-.04 3.68-.74 4.34-.04s.62 3.71-3.47 3.88c-3.02.12-4.54-.48-4.54-.48s-.01-1.07-.02-1.72s-.05-1.94-.05-1.94zm.13 8.74s1.11.28 3.37.31c1.7.02 3.26-.58 3.84.08s-.78 3.3-3.59 3.3s-3.62-.82-3.62-.82z"/><path fill="#464C4F" d="M47.39 110.16c-.22-.09-1.34 2.18-2.13 3.43s-1.34 2.13-1.25 2.83s.97 2.32 5.24 2.22c4.26-.09 7.51-1.62 8.25-4.08s.67-4.75.51-4.77c-.45-.08-1.6 1.55-6.91 1.58c-2.32.01-3.48-1.11-3.71-1.2zm41-7.53s-1.8 4.17-1.1 5.2c.6.88 2.32 1.39 4.92 1.07c3.36-.41 5.68-1.15 6.44-3.89c.59-2.11.63-3.66.63-3.66s-2.49 1.52-6.42 1.8c-2.27.16-4.47-.53-4.47-.53zm13.45 2.29s1.2 1.55 4.26 1.53c4.81-.03 7.46-2.87 7.46-2.87s.46 6.16-.88 8.06c-1.18 1.67-5.65 3.2-9.13 2.78s-3.93-1.95-3.43-4.17c.42-1.85 1.39-4.63 1.72-5.33m13.1-26.89c.51 7.08 2.62 12.21 2.8 13.18s-.17 2.91 1.08 2.91c1.77 0 2.8-10.27 2.8-15.75s-2.11-11.93-2.11-11.93s-.91 1.43-1.94 1.43s-2.11-.92-2.11-.92s-.9 5.71-.51 11.08z"/></svg>